# xmcd
#
# Track frame offsets:
#	150
#	19719
#	36830
#	53355
#	75405
#	92233
#	110486
#	126854
#	146343
#	168225
#	189063
#	203977
#	222087
#	239440
#	261806
#	290328
#
# Disc length: 4349 seconds
#
# Revision: 1
# Processed by: cddbd v1.5.2PL0 Copyright (c) Steve Scherf et al.
# Submitted via: audiograbber 1.83.01
#
DISCID=d210fb10
DTITLE=Mick Sterling - Between Saturday Night And Sunday Morning
DYEAR=2006
DGENRE=Blues
TTITLE0=Between Saturday Night And Sunday Morning
TTITLE1=It's Been A Long Time (Since I Loved My Woman Like That)
TTITLE2=You Don't Know What Dirty Is
TTITLE3=The Biblical Sense
TTITLE4=Heavy Lifting
TTITLE5=Man Pants
TTITLE6=Who Died And Made You King
TTITLE7=Lucky Man
TTITLE8=Maggie's Rosary
TTITLE9=The Skies Of Avalon
TTITLE10=Divine Miss Guidance
TTITLE11=Follow
TTITLE12=Blues Is My Business (And Business Is Good) (Live)
TTITLE13=Someone's Waiting For Me At Home (Live)
TTITLE14=Instead Of Making Love
TTITLE15=Daten-CD
EXTD=
EXTT0=
EXTT1=
EXTT2=
EXTT3=
EXTT4=
EXTT5=
EXTT6=
EXTT7=
EXTT8=
EXTT9=
EXTT10=
EXTT11=
EXTT12=
EXTT13=
EXTT14=
EXTT15=
PLAYORDER=
